<svg width="302" height="757" viewBox="0 0 302 757" fill="none" xmlns="http://www.w3.org/2000/svg">
<path d="M75.75 130.613C75.75 131.717 76.6454 132.613 77.75 132.613H86.5833C87.6879 132.613 88.5833 133.508 88.5833 134.613V136.388C88.5833 137.492 87.6879 138.388 86.5833 138.388H77.75C76.6454 138.388 75.75 139.283 75.75 140.388V143.769C75.75 144.873 76.6542 145.746 77.7324 145.982C79.459 146.361 81.0568 147.226 82.3261 148.495C84.0704 150.239 85.0516 152.604 85.0541 155.071V159.488C85.0541 160.592 84.1587 161.488 83.0541 161.488H81.2791C80.1746 161.488 79.2791 160.592 79.2791 159.488V155.071C79.2778 154.135 78.9054 153.239 78.2438 152.577C77.5826 151.916 76.6855 151.543 75.75 151.542H70.8479C70.3329 151.542 69.9153 151.959 69.9153 152.475C69.9153 156.033 68.502 159.445 65.986 161.961C63.4701 164.476 60.058 165.89 56.5 165.89C52.9419 165.89 49.5298 164.476 47.0139 161.961C44.498 159.445 43.0846 156.033 43.0846 152.475C43.0846 151.959 42.6671 151.542 42.152 151.542H37.25C36.3144 151.543 35.4175 151.916 34.756 152.577C34.0944 153.239 33.7221 154.135 33.7208 155.071V159.488C33.7208 160.592 32.8254 161.488 31.7208 161.488H29.9458C28.8412 161.488 27.9458 160.592 27.9458 159.488V155.071C27.9484 152.604 28.9295 150.239 30.6738 148.495C31.943 147.226 33.5409 146.361 35.2675 145.982C36.3457 145.746 37.25 144.873 37.25 143.769V140.388C37.25 139.283 36.3545 138.388 35.25 138.388H26.4166C25.3121 138.388 24.4166 137.492 24.4166 136.388V134.613C24.4166 133.508 25.3121 132.613 26.4166 132.613H35.25C36.3545 132.613 37.25 131.717 37.25 130.613V125.875C37.25 125.773 37.263 125.674 37.2657 125.571C37.2659 125.562 37.2588 125.555 37.25 125.555C34.7833 125.551 32.4187 124.57 30.6745 122.826C28.9303 121.081 27.949 118.717 27.9458 116.25V108.625C27.9458 107.521 28.8412 106.625 29.9458 106.625H31.7208C32.8254 106.625 33.7208 107.521 33.7208 108.625V116.25C33.7218 117.186 34.094 118.083 34.7556 118.744C35.4172 119.406 36.3143 119.779 37.25 119.78C37.8483 119.78 38.3749 119.395 38.5934 118.838C39.9402 115.404 42.2492 112.422 45.2529 110.257C48.528 107.897 52.4629 106.627 56.5 106.627C60.537 106.627 64.472 107.897 67.7471 110.257C70.7507 112.422 73.0597 115.404 74.4065 118.838C74.625 119.395 75.1516 119.78 75.75 119.78C76.6855 119.779 77.5826 119.406 78.2444 118.744C78.906 118.083 79.2782 117.186 79.2791 116.25V108.625C79.2791 107.521 80.1746 106.625 81.2791 106.625H83.0541C84.1587 106.625 85.0541 107.521 85.0541 108.625V116.25C85.0509 118.717 84.0695 121.081 82.3254 122.826C80.5814 124.57 78.2165 125.551 75.75 125.555C75.7411 125.555 75.7339 125.562 75.734 125.571C75.7355 125.672 75.75 125.772 75.75 125.875V130.613ZM48.8596 152.475C48.8596 154.501 49.6646 156.444 51.0974 157.877C52.5303 159.31 54.4736 160.115 56.5 160.115C58.5263 160.115 60.4696 159.31 61.9025 157.877C63.3353 156.444 64.1403 154.501 64.1403 152.475C64.1403 151.959 63.7227 151.542 63.2076 151.542H49.7923C49.2772 151.542 48.8596 151.959 48.8596 152.475ZM43.025 125.875V143.767C43.025 144.871 43.9204 145.767 45.025 145.767H51.6125C52.717 145.767 53.6125 144.871 53.6125 143.767V115.217C53.6125 113.939 52.4219 112.986 51.2455 113.484C49.212 114.347 47.4092 115.701 46.0078 117.441C44.0829 119.831 43.0307 122.806 43.025 125.875ZM69.975 125.875C69.9692 122.806 68.9172 119.831 66.9922 117.441C65.5908 115.701 63.7879 114.347 61.7544 113.484C60.5781 112.986 59.3875 113.939 59.3875 115.217V143.767C59.3875 144.871 60.2829 145.767 61.3875 145.767H67.975C69.0795 145.767 69.975 144.871 69.975 143.767V125.875Z" fill="#EDEDED"/>
<path d="M282.75 480.613C282.75 481.717 283.646 482.613 284.75 482.613H293.583C294.688 482.613 295.583 483.508 295.583 484.613V486.388C295.583 487.492 294.688 488.388 293.583 488.388H284.75C283.646 488.388 282.75 489.283 282.75 490.388V493.769C282.75 494.873 283.654 495.746 284.733 495.982C286.459 496.361 288.057 497.226 289.326 498.495C291.071 500.239 292.052 502.604 292.054 505.071V509.488C292.054 510.592 291.159 511.488 290.054 511.488H288.279C287.175 511.488 286.279 510.592 286.279 509.488V505.071C286.278 504.135 285.905 503.239 285.244 502.577C284.583 501.916 283.686 501.543 282.75 501.542H277.848C277.333 501.542 276.915 501.959 276.915 502.475C276.915 506.033 275.502 509.445 272.986 511.961C270.47 514.476 267.058 515.89 263.5 515.89C259.942 515.89 256.53 514.476 254.014 511.961C251.498 509.445 250.085 506.033 250.085 502.475C250.085 501.959 249.667 501.542 249.152 501.542H244.25C243.314 501.543 242.418 501.916 241.756 502.577C241.095 503.239 240.722 504.135 240.721 505.071V509.488C240.721 510.592 239.825 511.488 238.721 511.488H236.946C235.841 511.488 234.946 510.592 234.946 509.488V505.071C234.949 502.604 235.93 500.239 237.674 498.495C238.943 497.226 240.541 496.361 242.268 495.982C243.346 495.746 244.25 494.873 244.25 493.769V490.388C244.25 489.283 243.355 488.388 242.25 488.388H233.417C232.312 488.388 231.417 487.492 231.417 486.388V484.613C231.417 483.508 232.312 482.613 233.417 482.613H242.25C243.355 482.613 244.25 481.717 244.25 480.613V475.875C244.25 475.773 244.263 475.674 244.266 475.571C244.266 475.562 244.259 475.555 244.25 475.555C241.783 475.551 239.419 474.57 237.675 472.826C235.93 471.081 234.949 468.717 234.946 466.25V458.625C234.946 457.521 235.841 456.625 236.946 456.625H238.721C239.825 456.625 240.721 457.521 240.721 458.625V466.25C240.722 467.186 241.094 468.083 241.756 468.744C242.417 469.406 243.314 469.779 244.25 469.78C244.848 469.78 245.375 469.395 245.593 468.838C246.94 465.404 249.249 462.422 252.253 460.257C255.528 457.897 259.463 456.627 263.5 456.627C267.537 456.627 271.472 457.897 274.747 460.257C277.751 462.422 280.06 465.404 281.407 468.838C281.625 469.395 282.152 469.78 282.75 469.78C283.686 469.779 284.583 469.406 285.245 468.744C285.906 468.083 286.278 467.186 286.279 466.25V458.625C286.279 457.521 287.175 456.625 288.279 456.625H290.054C291.159 456.625 292.054 457.521 292.054 458.625V466.25C292.051 468.717 291.07 471.081 289.326 472.826C287.582 474.57 285.217 475.551 282.75 475.555C282.741 475.555 282.734 475.562 282.734 475.571C282.736 475.672 282.75 475.772 282.75 475.875V480.613ZM255.86 502.475C255.86 504.501 256.665 506.444 258.098 507.877C259.53 509.31 261.474 510.115 263.5 510.115C265.526 510.115 267.47 509.31 268.903 507.877C270.335 506.444 271.14 504.501 271.14 502.475C271.14 501.959 270.723 501.542 270.208 501.542H256.792C256.277 501.542 255.86 501.959 255.86 502.475ZM250.025 475.875V493.767C250.025 494.871 250.921 495.767 252.025 495.767H258.613C259.717 495.767 260.613 494.871 260.613 493.767V465.217C260.613 463.939 259.422 462.986 258.246 463.484C256.212 464.347 254.409 465.701 253.008 467.441C251.083 469.831 250.031 472.806 250.025 475.875ZM276.975 475.875C276.969 472.806 275.917 469.831 273.992 467.441C272.591 465.701 270.788 464.347 268.755 463.484C267.578 462.986 266.388 463.939 266.388 465.217V493.767C266.388 494.871 267.283 495.767 268.388 495.767H274.975C276.08 495.767 276.975 494.871 276.975 493.767V475.875Z" fill="#EDEDED"/>
<path d="M18.8332 302.277C18.8332 301.172 17.9377 300.277 16.8332 300.277H7.99984C6.89527 300.277 5.99984 299.382 5.99984 298.277L5.99984 296.502C5.99984 295.397 6.89527 294.502 7.99984 294.502H16.8332C17.9377 294.502 18.8332 293.607 18.8332 292.502V289.121C18.8332 288.017 17.9289 287.144 16.8507 286.907C15.1241 286.529 13.5263 285.664 12.2571 284.395C10.5127 282.651 9.53157 280.286 9.52901 277.819V273.402C9.52901 272.298 10.4244 271.402 11.529 271.402H13.304C14.4086 271.402 15.304 272.298 15.304 273.402V277.819C15.3053 278.754 15.6778 279.651 16.3393 280.313C17.0006 280.974 17.8976 281.347 18.8332 281.348H23.7352C24.2503 281.348 24.6678 280.93 24.6678 280.415C24.6678 276.857 26.0811 273.445 28.5971 270.929C31.1131 268.413 34.5251 267 38.0832 267C41.6412 267 45.0534 268.413 47.5693 270.929C50.0851 273.445 51.4985 276.857 51.4985 280.415C51.4985 280.93 51.9161 281.348 52.4312 281.348H57.3332C58.2688 281.347 59.1656 280.974 59.8272 280.313C60.4887 279.651 60.861 278.754 60.8623 277.819V273.402C60.8623 272.298 61.7578 271.402 62.8623 271.402H64.6373C65.7419 271.402 66.6373 272.298 66.6373 273.402V277.819C66.6347 280.286 65.6536 282.651 63.9093 284.395C62.6401 285.664 61.0422 286.529 59.3156 286.907C58.2374 287.144 57.3332 288.017 57.3332 289.121V292.502C57.3332 293.607 58.2286 294.502 59.3332 294.502H68.1665C69.2711 294.502 70.1665 295.397 70.1665 296.502L70.1665 298.277C70.1665 299.382 69.2711 300.277 68.1665 300.277H59.3332C58.2286 300.277 57.3332 301.172 57.3332 302.277V307.015C57.3332 307.117 57.3201 307.216 57.3175 307.319C57.3172 307.328 57.3243 307.335 57.3332 307.335C59.7998 307.339 62.1645 308.32 63.9086 310.064C65.6528 311.808 66.6341 314.173 66.6373 316.64V324.265C66.6373 325.369 65.7419 326.265 64.6373 326.265H62.8623C61.7578 326.265 60.8623 325.369 60.8623 324.265V316.64C60.8613 315.704 60.4892 314.807 59.8276 314.145C59.1659 313.484 58.2688 313.111 57.3332 313.11C56.7348 313.11 56.2083 313.495 55.9898 314.052C54.6429 317.486 52.3339 320.467 49.3303 322.632C46.0552 324.993 42.1202 326.263 38.0832 326.263C34.0461 326.263 30.1111 324.993 26.836 322.632C23.8325 320.467 21.5235 317.486 20.1766 314.052C19.9581 313.495 19.4315 313.11 18.8332 313.11C17.8976 313.111 17.0006 313.484 16.3387 314.145C15.6771 314.807 15.305 315.704 15.304 316.64V324.265C15.304 325.369 14.4086 326.265 13.304 326.265H11.529C10.4244 326.265 9.52901 325.369 9.52901 324.265V316.64C9.53222 314.173 10.5136 311.808 12.2577 310.064C14.0017 308.32 16.3666 307.339 18.8332 307.335C18.842 307.335 18.8492 307.328 18.8491 307.319C18.8477 307.218 18.8332 307.118 18.8332 307.015V302.277ZM45.7235 280.415C45.7235 278.389 44.9185 276.446 43.4857 275.013C42.0528 273.58 40.1096 272.775 38.0832 272.775C36.0568 272.775 34.1135 273.58 32.6807 275.013C31.2478 276.446 30.4428 278.389 30.4428 280.415C30.4428 280.93 30.8604 281.348 31.3755 281.348H44.7908C45.3059 281.348 45.7235 280.93 45.7235 280.415ZM51.5582 307.015L51.5582 289.123C51.5582 288.018 50.6627 287.123 49.5582 287.123H42.9707C41.8661 287.123 40.9707 288.018 40.9707 289.123L40.9707 317.673C40.9707 318.951 42.1613 319.904 43.3377 319.405C45.3711 318.543 47.1739 317.189 48.5753 315.449C50.5003 313.059 51.5525 310.084 51.5582 307.015ZM24.6082 307.015C24.6139 310.084 25.666 313.059 27.591 315.449C28.9924 317.189 30.7952 318.543 32.8287 319.405C34.0051 319.904 35.1957 318.951 35.1957 317.673L35.1957 289.123C35.1957 288.018 34.3002 287.123 33.1957 287.123H26.6082C25.5036 287.123 24.6082 288.018 24.6082 289.123V307.015Z" fill="#EDEDED"/>
<path d="M71.6128 523.25C72.7174 523.25 73.6128 522.355 73.6128 521.25L73.6128 512.417C73.6128 511.312 74.5083 510.417 75.6128 510.417H77.3878C78.4924 510.417 79.3878 511.312 79.3878 512.417V521.25C79.3878 522.355 80.2833 523.25 81.3878 523.25H84.769C85.8728 523.25 86.7463 522.346 86.9824 521.268C87.3606 519.541 88.2257 517.943 89.4949 516.674C91.2392 514.93 93.6042 513.948 96.0711 513.946H100.488C101.592 513.946 102.488 514.841 102.488 515.946V517.721C102.488 518.825 101.592 519.721 100.488 519.721H96.0711C95.1355 519.722 94.2386 520.095 93.5771 520.756C92.9155 521.417 92.5433 522.314 92.5419 523.25V528.152C92.5419 528.667 92.9595 529.085 93.4746 529.085C97.0325 529.085 100.445 530.498 102.961 533.014C105.476 535.53 106.89 538.942 106.89 542.5C106.89 546.058 105.476 549.47 102.961 551.986C100.445 554.502 97.0325 555.915 93.4746 555.915C92.9595 555.915 92.5419 556.333 92.5419 556.848V561.75C92.5433 562.686 92.9155 563.582 93.5771 564.244C94.2386 564.906 95.1355 565.278 96.0711 565.279H100.488C101.592 565.279 102.488 566.175 102.488 567.279V569.054C102.488 570.159 101.592 571.054 100.488 571.054H96.0711C93.6042 571.052 91.2392 570.07 89.4949 568.326C88.2257 567.057 87.3606 565.459 86.9825 563.732C86.7463 562.654 85.8728 561.75 84.769 561.75H81.3878C80.2833 561.75 79.3878 562.645 79.3878 563.75V572.583C79.3878 573.688 78.4924 574.583 77.3878 574.583H75.6128C74.5083 574.583 73.6128 573.688 73.6128 572.583V563.75C73.6128 562.645 72.7174 561.75 71.6128 561.75H66.8753C66.7728 561.75 66.6735 561.737 66.5705 561.734C66.5617 561.734 66.5545 561.741 66.5545 561.75C66.5513 564.217 65.5699 566.581 63.8258 568.325C62.0814 570.07 59.7169 571.051 57.2503 571.054H49.6253C48.5208 571.054 47.6253 570.159 47.6253 569.054V567.279C47.6253 566.175 48.5208 565.279 49.6253 565.279H57.2503C58.1859 565.278 59.0829 564.906 59.7445 564.244C60.4064 563.583 60.7785 562.686 60.7795 561.75C60.7795 561.152 60.3946 560.625 59.8376 560.407C56.4038 559.06 53.4225 556.751 51.2575 553.747C48.8968 550.472 47.6266 546.537 47.6266 542.5C47.6266 538.463 48.8968 534.528 51.2575 531.253C53.4225 528.249 56.4038 525.94 59.8376 524.593C60.3946 524.375 60.7795 523.848 60.7795 523.25C60.7785 522.314 60.4064 521.417 59.7445 520.756C59.0829 520.094 58.1859 519.722 57.2503 519.721H49.6253C48.5208 519.721 47.6253 518.825 47.6253 517.721L47.6253 515.946C47.6253 514.841 48.5208 513.946 49.6253 513.946H57.2503C59.7169 513.949 62.0814 514.93 63.8258 516.675C65.5699 518.419 66.5513 520.783 66.5545 523.25C66.5545 523.259 66.5617 523.266 66.5705 523.266C66.6724 523.264 66.7717 523.25 66.8753 523.25H71.6128ZM93.4746 550.14C95.5009 550.14 97.4442 549.335 98.8771 547.903C100.31 546.47 101.115 544.526 101.115 542.5C101.115 540.474 100.31 538.53 98.8771 537.097C97.4442 535.665 95.5009 534.86 93.4746 534.86C92.9595 534.86 92.5419 535.277 92.5419 535.792V549.208C92.5419 549.723 92.9595 550.14 93.4746 550.14ZM66.8753 555.975H84.7669C85.8715 555.975 86.7669 555.08 86.7669 553.975V547.387C86.7669 546.283 85.8715 545.387 84.7669 545.387H56.2172C54.9394 545.387 53.9855 546.578 54.4845 547.754C55.3469 549.788 56.7011 551.591 58.441 552.992C60.8312 554.917 63.8062 555.969 66.8753 555.975ZM66.8753 529.025C63.8062 529.031 60.8312 530.083 58.441 532.008C56.7011 533.409 55.3469 535.212 54.4845 537.246C53.9855 538.422 54.9394 539.612 56.2172 539.612H84.7669C85.8715 539.612 86.7669 538.717 86.7669 537.612V531.025C86.7669 529.92 85.8715 529.025 84.7669 529.025H66.8753Z" fill="#EDEDED"/>
<path d="M171.613 389.25C172.717 389.25 173.613 388.355 173.613 387.25V378.417C173.613 377.312 174.508 376.417 175.613 376.417H177.388C178.492 376.417 179.388 377.312 179.388 378.417V387.25C179.388 388.355 180.283 389.25 181.388 389.25H184.769C185.873 389.25 186.746 388.346 186.982 387.268C187.361 385.541 188.226 383.943 189.495 382.674C191.239 380.93 193.604 379.948 196.071 379.946H200.488C201.592 379.946 202.488 380.841 202.488 381.946V383.721C202.488 384.825 201.592 385.721 200.488 385.721H196.071C195.135 385.722 194.239 386.095 193.577 386.756C192.916 387.417 192.543 388.314 192.542 389.25V394.152C192.542 394.667 192.959 395.085 193.475 395.085C197.033 395.085 200.445 396.498 202.961 399.014C205.476 401.53 206.89 404.942 206.89 408.5C206.89 412.058 205.476 415.47 202.961 417.986C200.445 420.502 197.033 421.915 193.475 421.915C192.959 421.915 192.542 422.333 192.542 422.848V427.75C192.543 428.686 192.916 429.582 193.577 430.244C194.239 430.906 195.135 431.278 196.071 431.279H200.488C201.592 431.279 202.488 432.175 202.488 433.279V435.054C202.488 436.159 201.592 437.054 200.488 437.054H196.071C193.604 437.052 191.239 436.07 189.495 434.326C188.226 433.057 187.361 431.459 186.982 429.732C186.746 428.654 185.873 427.75 184.769 427.75H181.388C180.283 427.75 179.388 428.645 179.388 429.75V438.583C179.388 439.688 178.492 440.583 177.388 440.583H175.613C174.508 440.583 173.613 439.688 173.613 438.583V429.75C173.613 428.645 172.717 427.75 171.613 427.75H166.875C166.773 427.75 166.674 427.737 166.571 427.734C166.562 427.734 166.555 427.741 166.555 427.75C166.551 430.217 165.57 432.581 163.826 434.325C162.081 436.07 159.717 437.051 157.25 437.054H149.625C148.521 437.054 147.625 436.159 147.625 435.054V433.279C147.625 432.175 148.521 431.279 149.625 431.279H157.25C158.186 431.278 159.083 430.906 159.744 430.244C160.406 429.583 160.779 428.686 160.78 427.75C160.78 427.152 160.395 426.625 159.838 426.407C156.404 425.06 153.422 422.751 151.257 419.747C148.897 416.472 147.627 412.537 147.627 408.5C147.627 404.463 148.897 400.528 151.257 397.253C153.422 394.249 156.404 391.94 159.838 390.593C160.395 390.375 160.78 389.848 160.78 389.25C160.779 388.314 160.406 387.417 159.744 386.756C159.083 386.094 158.186 385.722 157.25 385.721H149.625C148.521 385.721 147.625 384.825 147.625 383.721V381.946C147.625 380.841 148.521 379.946 149.625 379.946H157.25C159.717 379.949 162.081 380.93 163.826 382.675C165.57 384.419 166.551 386.783 166.555 389.25C166.555 389.259 166.562 389.266 166.571 389.266C166.672 389.264 166.772 389.25 166.875 389.25H171.613ZM193.475 416.14C195.501 416.14 197.444 415.335 198.877 413.903C200.31 412.47 201.115 410.526 201.115 408.5C201.115 406.474 200.31 404.53 198.877 403.097C197.444 401.665 195.501 400.86 193.475 400.86C192.959 400.86 192.542 401.277 192.542 401.792V415.208C192.542 415.723 192.959 416.14 193.475 416.14ZM166.875 421.975H184.767C185.871 421.975 186.767 421.08 186.767 419.975V413.388C186.767 412.283 185.871 411.388 184.767 411.388H156.217C154.939 411.388 153.986 412.578 154.484 413.754C155.347 415.788 156.701 417.591 158.441 418.992C160.831 420.917 163.806 421.969 166.875 421.975ZM166.875 395.025C163.806 395.031 160.831 396.083 158.441 398.008C156.701 399.409 155.347 401.212 154.484 403.246C153.986 404.422 154.939 405.613 156.217 405.613H184.767C185.871 405.613 186.767 404.717 186.767 403.613V397.025C186.767 395.92 185.871 395.025 184.767 395.025H166.875Z" fill="#EDEDED"/>
<path d="M207.613 699.25C208.717 699.25 209.613 698.355 209.613 697.25V688.417C209.613 687.312 210.508 686.417 211.613 686.417H213.388C214.492 686.417 215.388 687.312 215.388 688.417V697.25C215.388 698.355 216.283 699.25 217.388 699.25H220.769C221.873 699.25 222.746 698.346 222.982 697.268C223.361 695.541 224.226 693.943 225.495 692.674C227.239 690.93 229.604 689.948 232.071 689.946H236.488C237.592 689.946 238.488 690.841 238.488 691.946V693.721C238.488 694.825 237.592 695.721 236.488 695.721H232.071C231.135 695.722 230.239 696.095 229.577 696.756C228.916 697.417 228.543 698.314 228.542 699.25V704.152C228.542 704.667 228.959 705.085 229.475 705.085C233.033 705.085 236.445 706.498 238.961 709.014C241.476 711.53 242.89 714.942 242.89 718.5C242.89 722.058 241.476 725.47 238.961 727.986C236.445 730.502 233.033 731.915 229.475 731.915C228.959 731.915 228.542 732.333 228.542 732.848V737.75C228.543 738.686 228.916 739.582 229.577 740.244C230.239 740.906 231.135 741.278 232.071 741.279H236.488C237.592 741.279 238.488 742.175 238.488 743.279V745.054C238.488 746.159 237.592 747.054 236.488 747.054H232.071C229.604 747.052 227.239 746.07 225.495 744.326C224.226 743.057 223.361 741.459 222.982 739.732C222.746 738.654 221.873 737.75 220.769 737.75H217.388C216.283 737.75 215.388 738.645 215.388 739.75V748.583C215.388 749.688 214.492 750.583 213.388 750.583H211.613C210.508 750.583 209.613 749.688 209.613 748.583V739.75C209.613 738.645 208.717 737.75 207.613 737.75H202.875C202.773 737.75 202.674 737.737 202.571 737.734C202.562 737.734 202.555 737.741 202.555 737.75C202.551 740.217 201.57 742.581 199.826 744.325C198.081 746.07 195.717 747.051 193.25 747.054H185.625C184.521 747.054 183.625 746.159 183.625 745.054V743.279C183.625 742.175 184.521 741.279 185.625 741.279H193.25C194.186 741.278 195.083 740.906 195.744 740.244C196.406 739.583 196.779 738.686 196.78 737.75C196.78 737.152 196.395 736.625 195.838 736.407C192.404 735.06 189.422 732.751 187.257 729.747C184.897 726.472 183.627 722.537 183.627 718.5C183.627 714.463 184.897 710.528 187.257 707.253C189.422 704.249 192.404 701.94 195.838 700.593C196.395 700.375 196.78 699.848 196.78 699.25C196.779 698.314 196.406 697.417 195.744 696.756C195.083 696.094 194.186 695.722 193.25 695.721H185.625C184.521 695.721 183.625 694.825 183.625 693.721V691.946C183.625 690.841 184.521 689.946 185.625 689.946H193.25C195.717 689.949 198.081 690.93 199.826 692.675C201.57 694.419 202.551 696.783 202.555 699.25C202.555 699.259 202.562 699.266 202.571 699.266C202.672 699.264 202.772 699.25 202.875 699.25H207.613ZM229.475 726.14C231.501 726.14 233.444 725.335 234.877 723.903C236.31 722.47 237.115 720.526 237.115 718.5C237.115 716.474 236.31 714.53 234.877 713.097C233.444 711.665 231.501 710.86 229.475 710.86C228.959 710.86 228.542 711.277 228.542 711.792V725.208C228.542 725.723 228.959 726.14 229.475 726.14ZM202.875 731.975H220.767C221.871 731.975 222.767 731.08 222.767 729.975V723.387C222.767 722.283 221.871 721.387 220.767 721.387H192.217C190.939 721.387 189.986 722.578 190.484 723.754C191.347 725.788 192.701 727.591 194.441 728.992C196.831 730.917 199.806 731.969 202.875 731.975ZM202.875 705.025C199.806 705.031 196.831 706.083 194.441 708.008C192.701 709.409 191.347 711.212 190.484 713.246C189.986 714.422 190.939 715.612 192.217 715.612H220.767C221.871 715.612 222.767 714.717 222.767 713.612V707.025C222.767 705.92 221.871 705.025 220.767 705.025H202.875Z" fill="#EDEDED"/>
<path d="M248.387 279.25C247.283 279.25 246.387 278.355 246.387 277.25V268.417C246.387 267.312 245.492 266.417 244.387 266.417H242.612C241.508 266.417 240.612 267.312 240.612 268.417V277.25C240.612 278.355 239.717 279.25 238.612 279.25H235.231C234.127 279.25 233.254 278.346 233.018 277.268C232.639 275.541 231.774 273.943 230.505 272.674C228.761 270.93 226.396 269.948 223.929 269.946H219.512C218.408 269.946 217.512 270.841 217.512 271.946V273.721C217.512 274.825 218.408 275.721 219.512 275.721H223.929C224.865 275.722 225.761 276.095 226.423 276.756C227.084 277.417 227.457 278.314 227.458 279.25V284.152C227.458 284.667 227.041 285.085 226.525 285.085C222.967 285.085 219.555 286.498 217.039 289.014C214.524 291.53 213.11 294.942 213.11 298.5C213.11 302.058 214.524 305.47 217.039 307.986C219.555 310.502 222.967 311.915 226.525 311.915C227.041 311.915 227.458 312.333 227.458 312.848V317.75C227.457 318.686 227.084 319.582 226.423 320.244C225.761 320.906 224.865 321.278 223.929 321.279H219.512C218.408 321.279 217.512 322.175 217.512 323.279V325.054C217.512 326.159 218.408 327.054 219.512 327.054H223.929C226.396 327.052 228.761 326.07 230.505 324.326C231.774 323.057 232.639 321.459 233.018 319.732C233.254 318.654 234.127 317.75 235.231 317.75H238.612C239.717 317.75 240.612 318.645 240.612 319.75V328.583C240.612 329.688 241.508 330.583 242.612 330.583H244.387C245.492 330.583 246.387 329.688 246.387 328.583V319.75C246.387 318.645 247.283 317.75 248.387 317.75H253.125C253.227 317.75 253.326 317.737 253.429 317.734C253.438 317.734 253.445 317.741 253.445 317.75C253.449 320.217 254.43 322.581 256.174 324.325C257.919 326.07 260.283 327.051 262.75 327.054H270.375C271.479 327.054 272.375 326.159 272.375 325.054V323.279C272.375 322.175 271.479 321.279 270.375 321.279H262.75C261.814 321.278 260.917 320.906 260.256 320.244C259.594 319.583 259.221 318.686 259.22 317.75C259.22 317.152 259.605 316.625 260.162 316.407C263.596 315.06 266.578 312.751 268.743 309.747C271.103 306.472 272.373 302.537 272.373 298.5C272.373 294.463 271.103 290.528 268.743 287.253C266.578 284.249 263.596 281.94 260.162 280.593C259.605 280.375 259.22 279.848 259.22 279.25C259.221 278.314 259.594 277.417 260.256 276.756C260.917 276.094 261.814 275.722 262.75 275.721H270.375C271.479 275.721 272.375 274.825 272.375 273.721V271.946C272.375 270.841 271.479 269.946 270.375 269.946H262.75C260.283 269.949 257.919 270.93 256.174 272.675C254.43 274.419 253.449 276.783 253.445 279.25C253.445 279.259 253.438 279.266 253.429 279.266C253.328 279.264 253.228 279.25 253.125 279.25H248.387ZM226.525 306.14C224.499 306.14 222.556 305.335 221.123 303.903C219.69 302.47 218.885 300.526 218.885 298.5C218.885 296.474 219.69 294.53 221.123 293.097C222.556 291.665 224.499 290.86 226.525 290.86C227.041 290.86 227.458 291.277 227.458 291.792V305.208C227.458 305.723 227.041 306.14 226.525 306.14ZM253.125 311.975H235.233C234.129 311.975 233.233 311.08 233.233 309.975V303.388C233.233 302.283 234.129 301.388 235.233 301.388H263.783C265.061 301.388 266.014 302.578 265.516 303.754C264.653 305.788 263.299 307.591 261.559 308.992C259.169 310.917 256.194 311.969 253.125 311.975ZM253.125 285.025C256.194 285.031 259.169 286.083 261.559 288.008C263.299 289.409 264.653 291.212 265.516 293.246C266.014 294.422 265.061 295.613 263.783 295.613H235.233C234.129 295.613 233.233 294.717 233.233 293.613V287.025C233.233 285.92 234.129 285.025 235.233 285.025H253.125Z" fill="#EDEDED"/>
<path d="M43.3872 649.25C42.2826 649.25 41.3872 648.355 41.3872 647.25L41.3872 638.417C41.3872 637.312 40.4917 636.417 39.3872 636.417H37.6122C36.5076 636.417 35.6122 637.312 35.6122 638.417V647.25C35.6122 648.355 34.7167 649.25 33.6122 649.25H30.231C29.1272 649.25 28.2537 648.346 28.0176 647.268C27.6394 645.541 26.7743 643.943 25.5051 642.674C23.7608 640.93 21.3958 639.948 18.9289 639.946H14.5123C13.4077 639.946 12.5123 640.841 12.5123 641.946V643.721C12.5123 644.825 13.4077 645.721 14.5123 645.721H18.9289C19.8645 645.722 20.7614 646.095 21.4229 646.756C22.0845 647.417 22.4567 648.314 22.4581 649.25V654.152C22.4581 654.667 22.0405 655.085 21.5254 655.085C17.9675 655.085 14.5552 656.498 12.0394 659.014C9.52351 661.53 8.11011 664.942 8.11011 668.5C8.11011 672.058 9.52351 675.47 12.0394 677.986C14.5552 680.502 17.9675 681.915 21.5254 681.915C22.0405 681.915 22.4581 682.333 22.4581 682.848L22.4581 687.75C22.4567 688.686 22.0845 689.582 21.4229 690.244C20.7614 690.906 19.8645 691.278 18.9289 691.279H14.5123C13.4077 691.279 12.5123 692.175 12.5123 693.279L12.5123 695.054C12.5123 696.159 13.4077 697.054 14.5123 697.054H18.9289C21.3958 697.052 23.7608 696.07 25.5051 694.326C26.7743 693.057 27.6394 691.459 28.0175 689.732C28.2537 688.654 29.1272 687.75 30.231 687.75H33.6122C34.7167 687.75 35.6122 688.645 35.6122 689.75V698.583C35.6122 699.688 36.5076 700.583 37.6122 700.583H39.3872C40.4917 700.583 41.3872 699.688 41.3872 698.583V689.75C41.3872 688.645 42.2826 687.75 43.3872 687.75H48.1247C48.2272 687.75 48.3265 687.737 48.4295 687.734C48.4383 687.734 48.4455 687.741 48.4455 687.75C48.4487 690.217 49.4301 692.581 51.1742 694.325C52.9186 696.07 55.2831 697.051 57.7497 697.054H65.3747C66.4792 697.054 67.3747 696.159 67.3747 695.054V693.279C67.3747 692.175 66.4792 691.279 65.3747 691.279H57.7497C56.8141 691.278 55.9171 690.906 55.2555 690.244C54.5936 689.583 54.2215 688.686 54.2205 687.75C54.2205 687.152 54.6054 686.625 55.1624 686.407C58.5962 685.06 61.5775 682.751 63.7425 679.747C66.1032 676.472 67.3734 672.537 67.3734 668.5C67.3734 664.463 66.1032 660.528 63.7425 657.253C61.5775 654.249 58.5962 651.94 55.1624 650.593C54.6054 650.375 54.2205 649.848 54.2205 649.25C54.2215 648.314 54.5936 647.417 55.2555 646.756C55.9171 646.094 56.8141 645.722 57.7497 645.721H65.3747C66.4792 645.721 67.3747 644.825 67.3747 643.721L67.3747 641.946C67.3747 640.841 66.4792 639.946 65.3747 639.946H57.7497C55.2831 639.949 52.9186 640.93 51.1742 642.675C49.4301 644.419 48.4487 646.783 48.4455 649.25C48.4455 649.259 48.4383 649.266 48.4295 649.266C48.3276 649.264 48.2283 649.25 48.1247 649.25H43.3872ZM21.5254 676.14C19.4991 676.14 17.5558 675.335 16.1229 673.903C14.6901 672.47 13.8851 670.526 13.8851 668.5C13.8851 666.474 14.6901 664.53 16.1229 663.097C17.5558 661.665 19.4991 660.86 21.5254 660.86C22.0405 660.86 22.4581 661.277 22.4581 661.792V675.208C22.4581 675.723 22.0405 676.14 21.5254 676.14ZM48.1247 681.975H30.2331C29.1285 681.975 28.2331 681.08 28.2331 679.975V673.388C28.2331 672.283 29.1285 671.388 30.2331 671.388H58.7828C60.0606 671.388 61.0145 672.578 60.5155 673.754C59.6531 675.788 58.2989 677.591 56.559 678.992C54.1688 680.917 51.1938 681.969 48.1247 681.975ZM48.1247 655.025C51.1938 655.031 54.1688 656.083 56.559 658.008C58.2989 659.409 59.6531 661.212 60.5155 663.246C61.0145 664.422 60.0606 665.613 58.7828 665.613H30.2331C29.1285 665.613 28.2331 664.717 28.2331 663.613V657.025C28.2331 655.92 29.1285 655.025 30.2331 655.025H48.1247Z" fill="#EDEDED"/>
<path d="M181.387 19.25C180.283 19.25 179.387 18.3545 179.387 17.25V8.41665C179.387 7.31208 178.492 6.41665 177.387 6.41665H175.612C174.508 6.41665 173.612 7.31208 173.612 8.41665V17.25C173.612 18.3546 172.717 19.25 171.612 19.25H168.231C167.127 19.25 166.254 18.3457 166.018 17.2676C165.639 15.541 164.774 13.9431 163.505 12.6739C161.761 10.9295 159.396 9.94838 156.929 9.94582H152.512C151.408 9.94582 150.512 10.8412 150.512 11.9458V13.7208C150.512 14.8254 151.408 15.7208 152.512 15.7208H156.929C157.865 15.7221 158.761 16.0946 159.423 16.7561C160.084 17.4174 160.457 18.3144 160.458 19.25V24.152C160.458 24.6671 160.041 25.0847 159.525 25.0847C155.967 25.0847 152.555 26.4979 150.039 29.0139C147.524 31.5299 146.11 34.9419 146.11 38.5C146.11 42.058 147.524 45.4702 150.039 47.9861C152.555 50.5019 155.967 51.9153 159.525 51.9153C160.041 51.9153 160.458 52.3329 160.458 52.848V57.75C160.457 58.6856 160.084 59.5824 159.423 60.244C158.761 60.9055 157.865 61.2778 156.929 61.2791H152.512C151.408 61.2791 150.512 62.1746 150.512 63.2791V65.0541C150.512 66.1587 151.408 67.0541 152.512 67.0541H156.929C159.396 67.0515 161.761 66.0704 163.505 64.3261C164.774 63.0569 165.639 61.459 166.018 59.7324C166.254 58.6542 167.127 57.75 168.231 57.75L171.612 57.75C172.717 57.75 173.612 58.6454 173.612 59.75V68.5833C173.612 69.6879 174.508 70.5833 175.612 70.5833H177.387C178.492 70.5833 179.387 69.6879 179.387 68.5833V59.75C179.387 58.6454 180.283 57.75 181.387 57.75H186.125C186.227 57.75 186.326 57.7369 186.429 57.7343C186.438 57.734 186.445 57.7412 186.445 57.75C186.449 60.2166 187.43 62.5813 189.174 64.3255C190.919 66.0696 193.283 67.0509 195.75 67.0541H203.375C204.479 67.0541 205.375 66.1587 205.375 65.0541V63.2791C205.375 62.1746 204.479 61.2791 203.375 61.2791L195.75 61.2791C194.814 61.2781 193.917 60.906 193.256 60.2444C192.594 59.5827 192.221 58.6857 192.22 57.75C192.22 57.1516 192.605 56.6251 193.162 56.4066C196.596 55.0597 199.578 52.7507 201.743 49.7471C204.103 46.472 205.373 42.537 205.373 38.5C205.373 34.4629 204.103 30.5279 201.743 27.2528C199.578 24.2493 196.596 21.9403 193.162 20.5934C192.605 20.3749 192.22 19.8483 192.22 19.25C192.221 18.3144 192.594 17.4174 193.256 16.7555C193.917 16.0939 194.814 15.7218 195.75 15.7208H203.375C204.479 15.7208 205.375 14.8254 205.375 13.7208V11.9458C205.375 10.8412 204.479 9.94582 203.375 9.94582H195.75C193.283 9.94902 190.919 10.9305 189.174 12.6745C187.43 14.4186 186.449 16.7834 186.445 19.25C186.445 19.2588 186.438 19.266 186.429 19.2659C186.328 19.2645 186.228 19.25 186.125 19.25H181.387ZM159.525 46.1403C157.499 46.1403 155.556 45.3353 154.123 43.9025C152.69 42.4697 151.885 40.5264 151.885 38.5C151.885 36.4736 152.69 34.5303 154.123 33.0975C155.556 31.6646 157.499 30.8597 159.525 30.8597C160.041 30.8597 160.458 31.2772 160.458 31.7923V45.2076C160.458 45.7227 160.041 46.1403 159.525 46.1403ZM186.125 51.975L168.233 51.975C167.129 51.975 166.233 51.0795 166.233 49.975V43.3875C166.233 42.2829 167.129 41.3875 168.233 41.3875L196.783 41.3875C198.061 41.3875 199.014 42.5781 198.516 43.7545C197.653 45.7879 196.299 47.5908 194.559 48.9921C192.169 50.9171 189.194 51.9693 186.125 51.975ZM186.125 25.025C189.194 25.0308 192.169 26.0828 194.559 28.0078C196.299 29.4092 197.653 31.212 198.516 33.2455C199.014 34.4219 198.061 35.6125 196.783 35.6125H168.233C167.129 35.6125 166.233 34.7171 166.233 33.6125V27.025C166.233 25.9204 167.129 25.025 168.233 25.025H186.125Z" fill="#EDEDED"/>
</svg>
